PathFileType	4	(X/Y/Z)	Walk1_0-155.trc
DataRate	CameraRate	NumFrames	NumMarkers	Units	OrigDataRate	OrigDataStartFrame	OrigNumFrames
30	30	6	22	m	30	38	155
Frame#	Time	Hip			RHip			RKnee			RAnkle			RBigToe			RSmallToe			RHeel			LHip			LKnee			LAnkle			LBigToe			LSmallToe			LHeel			Neck			Head			Nose			RShoulder			RElbow			RWrist			LShoulder			LElbow			LWrist		
		X1	Y1	Z1	X2	Y2	Z2	X3	Y3	Z3	X4	Y4	Z4	X5	Y5	Z5	X6	Y6	Z6	X7	Y7	Z7	X8	Y8	Z8	X9	Y9	Z9	X10	Y10	Z10	X11	Y11	Z11	X12	Y12	Z12	X13	Y13	Z13	X14	Y14	Z14	X15	Y15	Z15	X16	Y16	Z16	X17	Y17	Z17	X18	Y18	Z18	X19	Y19	Z19	X20	Y20	Z20	X21	Y21	Z21	X22	Y22	Z22
39	1.3	-2.1156651092399663	0.8484689358891531	0.374269173017958	-2.0709042383249847	0.8320929954161519	0.4686640562680057	-1.9828145498217036	0.4692424275947824	0.4619409949969239	-2.013714061533829	0.0870247837238417	0.4384653357262864	-1.832428345454718	0.009726391786110324	0.4281025761985194	-1.8304926157727541	0.009057945882026332	0.5097339055408896	-2.060055705376835	0.0094045693209732	0.42790929500042074	-2.1513341095944947	0.8196710458579622	0.2793133190687348	-2.1046938711187364	0.442953683048068	0.27663141619734255	-2.427349416002025	0.1564146509466466	0.2965491142198724	-2.346234471580552	-0.028108352847992405	0.28911004634372806	-2.4040373046019186	-0.021222964138567762	0.2505277394587752	-2.5045365526337107	0.12489229785674458	0.30018490233513906	-2.1280903825257758	1.522449213661993	0.33971395913737557	-2.0714087829764254	1.7655883901488156	0.360051662164428	-1.9799056128394585	1.648714819952257	0.3426253060009789	-2.1333036150442246	1.3831296502277441	0.5617223734228621	-2.147575763607279	1.0939041235679803	0.606245238078302	-2.1308574774701103	0.8468331242804491	0.6367881100201105	-2.1938584226506643	1.4165834919022042	0.14054110252983146	-2.170559213508532	1.1038499811026883	0.0993630543390141	-2.0898171387977342	0.8316943266202085	0.129375120638146
40	1.3333333333333333	-2.092492876335042	0.8530202326859212	0.37451848475196253	-2.056493144320044	0.8366142434768312	0.4672848304408126	-1.975231820148647	0.4662212580444617	0.46441017255693895	-2.010812980572044	0.08754484386627047	0.4422692140462884	-1.8252561145644695	0.011238236922151697	0.42997290807314503	-1.8295128509281278	0.009131276867863056	0.5098419712960192	-2.0553205654749824	0.013629259613263769	0.43232401902297296	-2.118878114284645	0.8263458171226344	0.2785660546526152	-2.0311086825911717	0.46179028835150926	0.27726710443007374	-2.358436196018346	0.21404361861505186	0.2831713403897505	-2.3086569112832676	-0.02906954775482123	0.29162686965177365	-2.356162344477007	-0.015461433482988104	0.24467714515947345	-2.4294829749707287	0.19597975325850256	0.2833019577035351	-2.103813998836951	1.529808127132579	0.3452682531666172	-2.0464519443897426	1.7725829692326407	0.36261921928241814	-1.9521492587649028	1.656878015397908	0.34680769834419356	-2.1269671151236875	1.4155662893881358	0.525998795000227	-2.1022915881869224	1.0964110946144352	0.6114569142257082	-2.071003203943637	0.8494692250409679	0.6365602119298377	-2.1708987364594674	1.4231199327612627	0.14495604629915607	-2.150056377898341	1.1113402332165703	0.10194424166472306	-2.0643465735554174	0.8540492107695271	0.11985495631684999
41	1.3666666666666667	-2.0620481631153513	0.8542008083973471	0.37671941097851547	-2.0363536487554925	0.8338735575563804	0.4712568559773101	-1.9956581206431343	0.48411343468445084	0.4314511008975953	-2.047073922741553	0.08180447352760621	0.45025570187230046	-1.831836369921833	0.01038250312035405	0.432198799833828	-1.8423042464381263	0.005401649048968569	0.5126578797686304	-2.0577039105569495	0.015357814816041706	0.4350350508516121	-2.0791992078324246	0.8316565726297835	0.28112670660017997	-1.9667212162175212	0.4772234279620997	0.2765062784587818	-2.2982540454270164	0.19156383713922795	0.3107036689584583	-2.251829766232328	-0.03343087047065003	0.296092524773964	-2.291259139833037	-0.008939505064295099	0.24526655190784255	-2.359437484964588	0.22051032495080278	0.2885511156730833	-2.0792485760662185	1.535333231930399	0.34882365683820415	-2.024304377043882	1.7771006731074706	0.3671919553423392	-1.931023944971145	1.661247099988921	0.35549862571648244	-2.1012970971541307	1.4199078517963906	0.5298567912307196	-2.0598091743120497	1.1007088415711341	0.6177708296159458	-2.018154643875668	0.8521081831822113	0.6417514876102608	-2.1453842992104897	1.4308836577800097	0.15013223630614725	-2.0979875272763793	1.1049314385695792	0.1391549650906388	-2.048581182115629	0.8498311376039942	0.13730948239613422
42	1.4	-2.038054638731625	0.8530187992214846	0.3790638936904716	-2.016714241904785	0.83393312936013	0.47616048757834495	-1.9948798659102736	0.4778062409753398	0.4384172823196781	-2.0508060614744124	0.07891720360697316	0.4505009756568925	-1.8341038549240822	0.0035005239230848557	0.42769419625788485	-1.8773882321916726	-0.0026976559100990913	0.48801199229816417	-2.0494960062812475	0.01773195797419021	0.4362050597904997	-2.0544494008056917	0.8335708195723669	0.2818882082737267	-1.8973871015058448	0.49461502217262804	0.27630419118999533	-2.226468332670768	0.20712076742279492	0.308390668169288	-2.1662892408158942	-0.005613952421410913	0.3035670973298561	-2.191316756100089	0.02113299175571208	0.245627421872993	-2.2735966978367053	0.21994323151516273	0.2975683733153332	-2.049467875698445	1.5420504476909458	0.354883615341654	-1.9920056722537482	1.7841324180814	0.3735309882583515	-1.9033730721522026	1.6620293781241489	0.3653719532335546	-2.07221015199639	1.4278172263497895	0.5394517989890327	-2.020017901420878	1.1069900319714818	0.6251953644088042	-1.9546682758838407	0.8595724512745843	0.6468050350137144	-2.119396054240819	1.4363450419248995	0.1503475712760378	-2.0974202058491453	1.1206981028986083	0.11850473476278034	-2.0232977861038584	0.8630060271338025	0.12596671739216417
43	1.4333333333333333	-2.009645351101987	0.8551454603233636	0.38500127854280813	-1.9988288432633374	0.832237871224961	0.48347111717419483	-1.9951849382882358	0.47247918294759256	0.44542869668076135	-2.054699209114502	0.08133531150503645	0.4517055139677458	-1.8419309905900005	0.0032341142994993213	0.43141854239010535	-1.878267969917191	-0.007517482634411921	0.48969552389732024	-2.055249128965749	0.01914141257605566	0.44279532631397495	-2.019178762695751	0.8384735288269575	0.28538231083714044	-1.8328226823761873	0.5129787782699582	0.2800950262135528	-2.1376050079421396	0.2121988021100524	0.3126960535385104	-2.04332425498476	0.011045500002434207	0.3100779167043266	-2.084948902100568	0.03401690994369871	0.25479806230509394	-2.204570433211467	0.1784121250276503	0.31679242801952423	-2.022029193477103	1.5467707747677166	0.3559241936016244	-1.9629672862963499	1.7998469425416723	0.3552881541130827	-1.8748018299983362	1.6558321366412163	0.3620798795782458	-2.0449920244048214	1.4321519608076831	0.5456393773774291	-1.9800561756665287	1.108403842404753	0.6298962433445688	-1.8922717729364136	0.8658873875333856	0.652773067902528	-2.090979742867175	1.4367789993348614	0.15512825589072815	-2.0664227499840426	1.1211822471289192	0.12865775908639013	-2.0026263137577613	0.86769517568534	0.12641209315774188
44	1.4666666666666666	-1.9819224668474151	0.8613483914461271	0.38463733098444963	-1.9829482269585785	0.8356061254515526	0.4811053579832028	-1.9896115430264438	0.47437511491121587	0.45169062872846194	-2.010360395587898	0.10015114819748826	0.45084605133356886	-1.8565945479800368	0.0037376408239729562	0.4282551769879117	-1.896954731916021	-0.007872170634196382	0.4840807021967158	-2.052289601667096	0.02504513590632805	0.4519818040297663	-1.9807459697277658	0.849246734148343	0.2804361217710867	-1.7809469093290924	0.534102619739258	0.28500505687905087	-2.0445214723048366	0.21267878913609634	0.31427539886909217	-1.924514233939272	0.015178033821717141	0.31678920651462844	-1.9688700697697228	0.029225445913195314	0.25975534276671763	-2.108778896505164	0.16357245006905172	0.3228032840730832	-1.9915566524391497	1.5492933984548833	0.3556069091464723	-1.9346985495947204	1.8037523998690514	0.3543606888940963	-1.8494506958632289	1.6594869327212736	0.368098758653275	-2.0207440640392256	1.436540274595539	0.5444224187490451	-1.939181106834902	1.1180798391174434	0.6315552844939406	-1.8342944838211943	0.8761223728728369	0.6566316612570651	-2.0625424333313687	1.4366872065125318	0.1541314818177343	-2.0429683654154176	1.1052214548367827	0.1659913228887997	-1.9814183225073745	0.8702495305379396	0.13007587402488077
